<svg width="34" height="34" viewBox="0 0 34 34" fill="none" xmlns="http://www.w3.org/2000/svg">
<path d="M33.2719 16.7363C33.3985 16.5366 33.4513 16.3205 33.4314 16.0882C33.4238 15.7911 33.3064 15.5397 33.0785 15.3343C32.9434 15.2126 32.7946 15.1317 32.6314 15.0919L9.12401 8.58989C8.87885 8.5221 8.64278 8.53829 8.41455 8.63862C8.18636 8.73906 8.00974 8.90124 7.88469 9.12461C7.75949 9.34833 7.71973 9.58363 7.76415 9.83108C7.80927 10.0779 7.92453 10.2853 8.11019 10.4527L15.4022 17.0245L8.83003 24.3169C8.6625 24.5028 8.56943 24.7208 8.5501 24.9712C8.53107 25.2217 8.59514 25.4519 8.74292 25.6613C8.8124 25.7539 8.86802 25.8196 8.91014 25.8576C9.24769 26.1618 9.62146 26.2311 10.0313 26.0647L32.739 17.1622C32.9678 17.078 33.1452 16.9358 33.2719 16.7363Z" fill="#E01E38"/>
</svg>
